HIERARCHY
ROOT root
{
	OFFSET 0.000000 0.000000 0.000000
	CHANNELS 6 Xposition Yposition Zposition Zrotation Yrotation Xrotation
	JOINT lhip
	{
		OFFSET 0.058581 -0.082280 -0.017664
		CHANNELS 3 Zrotation Yrotation Xrotation
		JOINT lknee
		{
			OFFSET 0.043451 -0.386469 0.008037
			CHANNELS 3 Zrotation Yrotation Xrotation
			JOINT lankle
			{
				OFFSET -0.014790 -0.426874 -0.037428
				CHANNELS 3 Zrotation Yrotation Xrotation
				JOINT ltoe
				{
					OFFSET 0.041054 -0.060286 0.122042
					CHANNELS 3 Zrotation Yrotation Xrotation
					End Site
					{
						OFFSET 0.000000 0.000000 0.000000
					}
				}
			}
		}
	}
	JOINT rhip
	{
		OFFSET -0.060310 -0.090513 -0.013543
		CHANNELS 3 Zrotation Yrotation Xrotation
		JOINT rknee
		{
			OFFSET -0.043257 -0.383688 -0.004843
			CHANNELS 3 Zrotation Yrotation Xrotation
			JOINT rankle
			{
				OFFSET 0.019056 -0.420046 -0.034562
				CHANNELS 3 Zrotation Yrotation Xrotation
				JOINT rtoe
				{
					OFFSET -0.034840 -0.062106 0.130323
					CHANNELS 3 Zrotation Yrotation Xrotation
					End Site
					{
						OFFSET 0.000000 0.000000 0.000000
					}
				}
			}
		}
	}
	JOINT lowerback
	{
		OFFSET 0.004439 0.124404 -0.038385
		CHANNELS 3 Zrotation Yrotation Xrotation
		JOINT upperback
		{
			OFFSET 0.004488 0.137956 0.026820
			CHANNELS 3 Zrotation Yrotation Xrotation
			JOINT chest
			{
				OFFSET -0.002265 0.056032 0.002855
				CHANNELS 3 Zrotation Yrotation Xrotation
				JOINT lowerneck
				{
					OFFSET -0.013390 0.211636 -0.033468
					CHANNELS 3 Zrotation Yrotation Xrotation
					JOINT upperneck
					{
						OFFSET 0.010113 0.088937 0.050410
						CHANNELS 3 Zrotation Yrotation Xrotation
						End Site
						{
							OFFSET 0.000000 0.000000 0.000000
						}
					}
				}
				JOINT lclavicle
				{
					OFFSET 0.071702 0.114000 -0.018898
					CHANNELS 3 Zrotation Yrotation Xrotation
					JOINT lshoulder
					{
						OFFSET 0.122921 0.045205 -0.019046
						CHANNELS 3 Zrotation Yrotation Xrotation
						JOINT lelbow
						{
							OFFSET 0.255332 -0.015649 -0.022946
							CHANNELS 3 Zrotation Yrotation Xrotation
							JOINT lwrist
							{
								OFFSET 0.265709 0.012698 -0.007375
								CHANNELS 3 Zrotation Yrotation Xrotation
								End Site
								{
									OFFSET 0.000000 0.000000 0.000000
								}
							}
						}
					}
				}
				JOINT rclavicle
				{
					OFFSET -0.082954 0.112472 -0.023707
					CHANNELS 3 Zrotation Yrotation Xrotation
					JOINT rshoulder
					{
						OFFSET -0.113228 0.046853 -0.008472
						CHANNELS 3 Zrotation Yrotation Xrotation
						JOINT relbow
						{
							OFFSET -0.260127 -0.014369 -0.031269
							CHANNELS 3 Zrotation Yrotation Xrotation
							JOINT rwrist
							{
								OFFSET -0.269108 0.006794 -0.006027
								CHANNELS 3 Zrotation Yrotation Xrotation
								End Site
								{
									OFFSET 0.000000 0.000000 0.000000
								}
							}
						}
					}
				}
			}
		}
	}
}
MOTION
Frames: 11
Frame Time: 0.033333
0.169331 2.526314 0.983077 5.861453 1.655383 82.797796 -3.519041 -2.010835 6.301034 -4.785668 -9.588520 12.811391 7.198101 16.976174 -25.110820 0.000000 -0.000000 0.000000 2.325249 4.351627 -17.848296 2.325633 -4.277904 48.123979 4.768531 -8.655904 -12.695371 0.000000 -0.000000 0.000000 -2.038307 -1.201913 15.344243 2.839456 -0.284921 5.340888 1.244595 -0.863072 2.165616 0.729241 6.276240 -3.402750 -1.078222 -1.352000 -1.949718 -22.226187 -5.305164 -0.001588 -58.503628 -11.166909 17.401049 1.823824 -38.952762 18.029853 -1.242722 -4.814420 -9.445331 25.245534 4.501435 1.234142 54.341104 4.345618 13.463914 -9.801404 17.530571 4.881811 10.985422 -1.589954 0.279308 
0.169736 2.515487 0.985981 6.081564 2.414070 83.781396 -2.205227 -1.862601 7.031399 -4.924649 -10.148790 10.745898 6.769811 16.343076 -24.764562 0.000000 -0.000000 0.000000 2.592610 4.481826 -21.127306 2.614195 -4.594916 46.057271 5.121130 -7.803627 -10.961858 0.000000 -0.000000 0.000000 -1.410450 -1.511521 13.788745 3.330693 0.255098 6.829044 1.576523 -0.809013 2.407249 -0.158288 5.858122 -4.299999 -1.357429 -1.553047 -1.979131 -21.802608 -5.593529 0.248794 -60.019630 -12.505883 17.899930 4.263727 -41.363215 15.666321 -1.108929 -4.372360 -10.720800 24.655798 4.563396 1.928540 53.798809 4.389320 13.010374 -8.920114 15.780395 5.138306 13.297452 -2.062157 -0.576870 
0.170182 2.502734 0.988065 6.490847 2.818262 84.857147 -1.175626 -1.199234 7.607287 -5.072718 -10.844658 8.968948 6.202947 15.336021 -24.558289 0.000000 -0.000000 0.000000 2.295887 4.637428 -23.709480 1.972725 -5.799028 41.366938 5.467775 -7.957457 -9.225261 0.000000 -0.000000 0.000000 -0.935540 -2.411405 13.647530 3.256545 0.663165 6.623725 1.878412 -0.709914 2.090041 -0.769343 5.118987 -4.385494 -1.197435 -1.369885 -2.353284 -21.673311 -4.933154 0.421551 -60.838788 -13.073640 18.308857 5.649312 -44.142937 14.250185 -0.081114 -4.206977 -11.911601 24.201884 4.406189 2.507370 53.550013 4.093990 12.686108 -7.520667 13.762291 4.907287 13.907118 -1.843428 -2.047974 
0.170320 2.482912 0.986907 8.098562 3.316143 86.073564 0.119334 -0.633127 8.120243 -5.186033 -11.715110 7.889275 5.612585 13.382680 -24.396509 0.000000 -0.000000 0.000000 1.761317 3.753906 -26.238164 0.930272 -7.260771 32.334767 5.884189 -8.039909 -8.301490 0.000000 -0.000000 0.000000 -0.071833 -3.256759 14.724566 3.112119 0.316500 5.908050 2.281474 -0.975919 1.813012 -1.625762 4.810395 -5.636512 -0.683759 -0.622719 -3.680063 -21.368883 -4.867012 0.386909 -61.192121 -14.092200 18.923881 6.147261 -47.319058 13.380085 3.697984 -5.012590 -13.447891 23.723665 4.107030 2.735529 53.475713 3.152798 12.544578 -6.833949 12.304422 5.128722 12.519562 -1.938636 -0.939069 
0.169810 2.475249 0.985351 8.374040 3.361180 86.480172 0.465021 -0.436566 8.227398 -5.329994 -11.940487 7.770783 5.487034 12.961513 -24.710636 0.000000 -0.000000 0.000000 1.657075 3.417005 -27.060452 0.693054 -7.196149 29.515225 6.004185 -7.789907 -7.655699 0.000000 -0.000000 0.000000 0.055381 -3.307581 14.916354 3.082357 0.225695 5.843893 2.417680 -1.075689 1.803124 -1.764031 4.742849 -5.949290 -0.512907 -0.357121 -4.239301 -21.419191 -5.121011 0.384011 -60.886852 -14.424355 19.094402 6.008493 -48.058291 13.322698 5.249999 -5.365676 -13.495623 23.808751 4.070629 2.901352 53.333598 2.833537 12.472777 -6.930403 12.269160 5.246481 11.736661 -1.942593 -0.074289 
0.168333 2.457962 0.980891 8.692861 3.169212 87.176863 0.878615 -0.156239 8.659468 -5.731071 -12.405686 7.635178 5.421284 12.587848 -25.282194 0.000000 -0.000000 0.000000 1.313173 2.717028 -28.489090 0.592835 -6.289553 24.437740 6.459211 -7.258744 -4.183916 0.000000 -0.000000 0.000000 -0.023810 -3.247847 15.256148 2.993541 0.093287 5.810974 2.644844 -1.285878 1.831718 -1.954272 4.870276 -6.688926 -0.192150 0.374453 -5.118177 -21.433193 -5.700913 0.303666 -60.119601 -15.114098 19.308203 5.221743 -48.789930 13.905780 8.010770 -6.316227 -13.140596 24.188037 3.954266 3.235700 53.093772 2.509923 12.372516 -7.438705 12.151299 5.853967 10.176901 -2.025458 2.693939 
0.166469 2.438958 0.975394 8.607206 2.719816 87.749486 0.915218 0.191971 9.387382 -5.924753 -12.747601 7.502626 5.399641 12.564818 -26.004087 0.000000 -0.000000 0.000000 1.006657 2.230846 -29.709300 0.583035 -4.562670 20.741361 6.740499 -6.485421 -2.081560 0.000000 -0.000000 0.000000 -0.364805 -3.014957 15.392056 2.878673 0.061696 6.132345 2.779280 -1.384716 1.919848 -2.063454 5.617178 -7.754479 -0.063572 1.111278 -5.755229 -21.278440 -6.737307 0.246155 -59.473628 -15.813507 19.313109 4.657112 -47.996505 14.344916 9.907591 -7.070434 -11.921174 24.383048 4.398199 3.480381 53.137923 2.599458 12.232376 -7.821384 11.865910 5.325579 8.942159 -1.781311 3.270375 
0.163838 2.417120 0.969633 8.117980 2.519744 88.441822 1.380106 0.886249 10.202256 -6.179114 -13.061903 7.368803 5.057946 12.407854 -26.786051 0.000000 -0.000000 0.000000 1.129936 2.119417 -30.883321 0.403495 -3.429445 19.191961 6.652922 -5.928416 -2.303894 0.000000 -0.000000 0.000000 -0.459182 -2.946751 15.286942 2.850721 0.189220 6.268127 2.873612 -1.342028 1.701323 -1.995734 6.105769 -7.893518 -0.190252 1.583627 -5.771484 -21.352219 -7.640443 0.294198 -59.199848 -15.861031 19.196870 4.647593 -45.657222 14.556228 11.414815 -7.340423 -10.152119 24.325802 5.136039 3.887934 53.261852 2.875390 12.045669 -7.861785 11.195944 4.932870 7.699730 -1.419429 2.976556 
0.160657 2.391207 0.964521 7.612901 2.551829 89.100261 1.975856 1.411008 11.389741 -6.084179 -13.276616 7.189571 4.708305 12.405717 -26.941800 0.000000 -0.000000 0.000000 1.471332 2.061507 -31.616993 0.126191 -3.957448 20.489522 6.497453 -6.597177 -1.095611 0.000000 -0.000000 0.000000 -0.237368 -3.227146 15.255034 2.773224 0.333483 5.665386 2.905292 -1.179703 1.396909 -2.192712 6.579210 -7.799397 -0.507289 2.438052 -5.488939 -21.714389 -7.859024 0.557753 -59.279987 -15.395162 18.657815 4.460726 -41.886348 14.854941 11.012072 -7.623679 -8.361631 24.520121 5.640422 4.175073 53.112865 3.223495 11.974362 -7.783429 10.167912 4.787514 7.447550 -1.280809 3.078720 
0.157170 2.361877 0.960539 6.804708 2.917762 89.283687 2.376918 1.405246 13.226787 -5.489226 -13.630640 7.358320 4.063124 12.800650 -26.514796 0.000000 -0.000000 0.000000 2.048558 2.836250 -31.539679 -0.459287 -6.184207 24.189797 5.396356 -8.821004 0.018420 0.000000 -0.000000 0.000000 0.308398 -3.641553 14.391700 2.964502 0.622244 6.574973 2.769138 -0.847899 1.248733 -2.426431 7.127213 -8.164519 -1.254754 3.136071 -4.953538 -21.900817 -8.215044 0.727951 -60.042968 -14.849001 17.950742 5.063343 -36.752351 13.953403 8.682523 -6.464082 -7.504886 24.406586 6.516398 4.195271 53.039802 4.238280 12.053075 -8.021264 9.249899 4.465407 8.739340 -1.735804 2.712499 
0.152366 2.328545 0.959180 4.682383 3.918117 89.631221 3.080478 1.429842 14.767682 -4.800171 -13.026094 8.500476 2.459153 13.318465 -25.199287 0.000000 -0.000000 0.000000 3.074615 5.349394 -31.277484 -0.393324 -7.831041 26.664213 4.359094 -8.102441 -3.544218 0.000000 -0.000000 0.000000 1.503346 -4.086955 13.784161 2.958039 1.739304 6.383173 2.663666 -0.307780 0.863456 -2.757745 8.138485 -7.482037 -2.240713 3.585605 -5.155483 -22.950609 -7.671979 0.832093 -60.625924 -12.901112 17.123549 5.686760 -31.981392 12.392576 6.782723 -5.922341 -5.807361 24.835070 7.038231 4.524343 52.234394 5.178716 11.883344 -7.942119 8.774456 4.904866 8.530811 -1.956722 1.988699 
